<svg xmlns="http://www.w3.org/2000/svg" xmlns:xlink="http://www.w3.org/1999/xlink" width="500" zoomAndPan="magnify" viewBox="0 0 375 374.999991" height="500" preserveAspectRatio="xMidYMid meet" version="1.0"><defs><g/><clipPath id="id1"><path d="M 4.535156 133.277344 L 102.785156 133.277344 L 102.785156 242.027344 L 4.535156 242.027344 Z M 4.535156 133.277344 " clip-rule="nonzero"/></clipPath></defs><g clip-path="url(#id1)"><path fill="#ff914d" d="M 101.019531 212.015625 C 101.019531 213.550781 99.953125 215.445312 98.691406 216.152344 L 56 240.078125 C 55.566406 240.320312 55.179688 240.375 54.941406 240.238281 C 54.667969 240.078125 54.503906 239.632812 54.503906 239.046875 L 54.503906 191.40625 C 55.84375 191.480469 57.140625 191.78125 58.339844 192.289062 L 58.363281 210.28125 C 58.363281 216.453125 63.390625 221.476562 69.570312 221.476562 C 74.429688 221.476562 78.5625 218.367188 80.113281 214.035156 C 85.359375 213.054688 89.257812 208.429688 89.257812 203.042969 C 89.257812 202.492188 89.203125 201.941406 89.125 201.394531 C 92.496094 199.203125 94.734375 195.410156 94.734375 191.101562 C 94.734375 186.824219 92.511719 182.882812 88.894531 180.648438 C 89.097656 179.796875 89.207031 178.914062 89.207031 178.019531 C 89.207031 174.03125 87.066406 170.464844 83.832031 168.476562 L 99.527344 159.679688 C 99.960938 159.4375 100.347656 159.378906 100.585938 159.519531 C 100.859375 159.679688 101.019531 160.125 101.019531 160.714844 Z M 58.339844 190.453125 C 57.121094 190.015625 55.832031 189.757812 54.503906 189.695312 L 54.503906 187.742188 C 54.503906 186.207031 55.574219 184.3125 56.835938 183.605469 L 58.328125 182.769531 Z M 53.648438 184.636719 C 53.066406 183.566406 52.238281 182.640625 51.296875 182.113281 L 48.976562 180.8125 L 48.988281 171.664062 C 48.988281 167.613281 46.820312 164.074219 43.589844 162.105469 C 45.566406 158.421875 49.40625 156.089844 53.648438 156.089844 C 57.613281 156.089844 61.253906 158.128906 63.335938 161.453125 C 60.3125 163.460938 58.3125 166.890625 58.3125 170.78125 L 58.324219 180.808594 L 56 182.113281 C 55.0625 182.640625 54.230469 183.566406 53.648438 184.636719 Z M 52.792969 189.722656 C 51.457031 189.832031 50.171875 190.144531 48.964844 190.632812 L 48.972656 182.773438 L 50.460938 183.605469 C 51.722656 184.3125 52.792969 186.207031 52.792969 187.742188 Z M 52.792969 239.046875 C 52.792969 239.34375 52.738281 240.3125 52.046875 240.3125 C 51.832031 240.3125 51.574219 240.230469 51.296875 240.078125 L 8.609375 216.152344 C 7.34375 215.445312 6.277344 213.550781 6.277344 212.015625 L 6.277344 160.714844 C 6.277344 160.414062 6.332031 159.445312 7.019531 159.445312 C 7.234375 159.445312 7.496094 159.527344 7.769531 159.679688 L 24.253906 168.917969 C 20.582031 170.785156 18.09375 174.601562 18.09375 178.902344 C 18.09375 179.796875 18.199219 180.675781 18.40625 181.527344 C 14.789062 183.761719 12.5625 187.703125 12.5625 191.980469 C 12.5625 196.292969 14.800781 200.085938 18.175781 202.277344 C 18.097656 202.820312 18.042969 203.371094 18.042969 203.921875 C 18.042969 209.308594 21.941406 213.9375 27.1875 214.917969 C 28.738281 219.246094 32.871094 222.355469 37.730469 222.355469 C 43.910156 222.355469 48.9375 217.335938 48.9375 211.164062 L 48.960938 192.496094 C 50.148438 191.929688 51.445312 191.570312 52.792969 191.441406 Z M 44.53125 178.320312 L 28.578125 169.378906 C 29.601562 165.25 33.335938 162.175781 37.78125 162.175781 C 43.015625 162.175781 47.273438 166.433594 47.273438 171.664062 C 47.273438 174.253906 46.226562 176.609375 44.53125 178.320312 Z M 46.0625 179.179688 C 46.507812 178.6875 46.914062 178.15625 47.269531 177.59375 L 47.265625 179.855469 Z M 37.410156 182.003906 C 37.410156 182.902344 36.675781 183.636719 35.773438 183.636719 C 34.871094 183.636719 34.136719 182.902344 34.136719 182.003906 C 34.136719 181.101562 34.871094 180.367188 35.773438 180.367188 C 36.675781 180.367188 37.410156 181.101562 37.410156 182.003906 Z M 27.378906 172.515625 C 28.28125 172.515625 29.015625 173.25 29.015625 174.152344 C 29.015625 175.050781 28.28125 175.785156 27.378906 175.785156 C 26.476562 175.785156 25.742188 175.050781 25.742188 174.152344 C 25.742188 173.25 26.476562 172.515625 27.378906 172.515625 Z M 20.617188 186.542969 C 20.617188 185.640625 21.351562 184.910156 22.253906 184.910156 C 23.15625 184.910156 23.890625 185.640625 23.890625 186.542969 C 23.890625 187.445312 23.15625 188.179688 22.253906 188.179688 C 21.351562 188.179688 20.617188 187.445312 20.617188 186.542969 Z M 25.792969 203.410156 C 25.792969 202.507812 26.527344 201.773438 27.429688 201.773438 C 28.332031 201.773438 29.066406 202.507812 29.066406 203.410156 C 29.066406 204.3125 28.332031 205.042969 27.429688 205.042969 C 26.527344 205.042969 25.792969 204.3125 25.792969 203.410156 Z M 42.394531 200.4375 C 42.394531 201.339844 41.660156 202.074219 40.757812 202.074219 C 39.855469 202.074219 39.121094 201.339844 39.121094 200.4375 C 39.121094 199.539062 39.855469 198.804688 40.757812 198.804688 C 41.660156 198.804688 42.394531 199.539062 42.394531 200.4375 Z M 41.957031 197.320312 C 41.585938 197.175781 41.179688 197.09375 40.757812 197.09375 C 38.914062 197.09375 37.410156 198.59375 37.410156 200.4375 C 37.410156 202.285156 38.914062 203.785156 40.757812 203.785156 C 41.902344 203.785156 42.910156 203.207031 43.515625 202.332031 C 45.625 203.894531 46.976562 206.28125 47.230469 208.898438 L 47.226562 211.160156 C 47.226562 216.390625 42.964844 220.644531 37.730469 220.644531 C 32.496094 220.644531 28.238281 216.390625 28.238281 211.160156 C 28.238281 210.367188 28.335938 209.578125 28.527344 208.816406 L 26.871094 208.394531 C 26.640625 209.292969 26.523438 210.222656 26.523438 211.160156 C 26.523438 211.804688 26.59375 212.433594 26.699219 213.050781 C 22.664062 211.921875 19.753906 208.207031 19.753906 203.921875 C 19.753906 203.667969 19.773438 203.414062 19.792969 203.160156 C 21.144531 203.773438 22.628906 204.144531 24.1875 204.230469 C 24.554688 205.679688 25.867188 206.753906 27.429688 206.753906 C 29.277344 206.753906 30.777344 205.253906 30.777344 203.410156 C 30.777344 201.5625 29.277344 200.0625 27.429688 200.0625 C 25.890625 200.0625 24.597656 201.105469 24.207031 202.519531 C 18.675781 202.179688 14.273438 197.589844 14.273438 191.980469 C 14.273438 188.4375 16.046875 185.164062 18.957031 183.207031 C 19.144531 183.65625 19.355469 184.089844 19.597656 184.511719 C 19.167969 185.078125 18.90625 185.777344 18.90625 186.542969 C 18.90625 188.390625 20.40625 189.890625 22.253906 189.890625 C 24.101562 189.890625 25.601562 188.390625 25.601562 186.542969 C 25.601562 184.699219 24.101562 183.199219 22.253906 183.199219 C 21.800781 183.199219 21.367188 183.289062 20.972656 183.453125 C 20.210938 182.0625 19.804688 180.507812 19.804688 178.902344 C 19.804688 174.839844 22.417969 171.289062 26.125 169.96875 L 26.671875 170.273438 C 26.644531 170.480469 26.628906 170.6875 26.613281 170.898438 C 25.136719 171.246094 24.03125 172.570312 24.03125 174.152344 C 24.03125 175.996094 25.535156 177.496094 27.378906 177.496094 C 29.226562 177.496094 30.730469 175.996094 30.730469 174.152344 C 30.730469 173.417969 30.484375 172.738281 30.082031 172.183594 L 43.125 179.496094 C 41.917969 180.320312 40.507812 180.867188 38.984375 181.0625 C 38.578125 179.675781 37.292969 178.65625 35.773438 178.65625 C 33.929688 178.65625 32.425781 180.15625 32.425781 182.003906 C 32.425781 183.847656 33.929688 185.347656 35.773438 185.347656 C 37.351562 185.347656 38.671875 184.25 39.027344 182.785156 C 41.179688 182.546875 43.148438 181.691406 44.757812 180.410156 L 47.261719 181.8125 L 47.25 191.472656 C 44.96875 192.804688 43.105469 194.820312 41.957031 197.320312 Z M 43.367188 198.34375 C 44.207031 196.359375 45.570312 194.710938 47.246094 193.511719 L 47.234375 203.847656 C 46.429688 202.59375 45.367188 201.5 44.097656 200.652344 C 44.101562 200.582031 44.105469 200.511719 44.105469 200.4375 C 44.105469 199.644531 43.828125 198.917969 43.367188 198.34375 Z M 69.886719 181.121094 C 69.886719 180.222656 70.625 179.488281 71.527344 179.488281 C 72.429688 179.488281 73.164062 180.222656 73.164062 181.121094 C 73.164062 182.023438 72.429688 182.757812 71.527344 182.757812 C 70.625 182.757812 69.886719 182.023438 69.886719 181.121094 Z M 61.789062 178.867188 L 60.035156 179.851562 L 60.03125 176.714844 C 60.527344 177.503906 61.117188 178.226562 61.789062 178.867188 Z M 79.921875 171.636719 C 80.824219 171.636719 81.554688 172.371094 81.554688 173.269531 C 81.554688 174.171875 80.824219 174.90625 79.921875 174.90625 C 79.019531 174.90625 78.28125 174.171875 78.28125 173.269531 C 78.28125 172.371094 79.019531 171.636719 79.921875 171.636719 Z M 63.359375 177.988281 C 61.324219 176.246094 60.023438 173.664062 60.023438 170.78125 C 60.023438 165.550781 64.28125 161.296875 69.519531 161.296875 C 74.246094 161.296875 78.164062 164.769531 78.882812 169.289062 Z M 64.90625 199.558594 C 64.90625 198.65625 65.640625 197.925781 66.542969 197.925781 C 67.441406 197.925781 68.175781 198.65625 68.175781 199.558594 C 68.175781 200.460938 67.441406 201.195312 66.542969 201.195312 C 65.640625 201.195312 64.90625 200.460938 64.90625 199.558594 Z M 63.203125 199.773438 C 61.933594 200.621094 60.871094 201.710938 60.066406 202.964844 L 60.054688 193.199219 C 61.664062 194.234375 63.023438 195.671875 63.960938 197.429688 C 63.480469 198.007812 63.191406 198.75 63.191406 199.558594 C 63.191406 199.632812 63.199219 199.703125 63.203125 199.773438 Z M 81.503906 202.527344 C 81.503906 203.429688 80.769531 204.164062 79.867188 204.164062 C 78.96875 204.164062 78.234375 203.429688 78.234375 202.527344 C 78.234375 201.625 78.96875 200.894531 79.867188 200.894531 C 80.769531 200.894531 81.503906 201.625 81.503906 202.527344 Z M 86.683594 185.664062 C 86.683594 186.566406 85.949219 187.300781 85.046875 187.300781 C 84.144531 187.300781 83.410156 186.566406 83.410156 185.664062 C 83.410156 184.761719 84.144531 184.027344 85.046875 184.027344 C 85.949219 184.027344 86.683594 184.761719 86.683594 185.664062 Z M 86.328125 182.574219 C 85.933594 182.410156 85.5 182.320312 85.046875 182.320312 C 83.199219 182.320312 81.699219 183.820312 81.699219 185.664062 C 81.699219 187.507812 83.199219 189.007812 85.046875 189.007812 C 86.890625 189.007812 88.394531 187.507812 88.394531 185.664062 C 88.394531 184.898438 88.132812 184.195312 87.699219 183.632812 C 87.945312 183.210938 88.15625 182.773438 88.34375 182.328125 C 91.25 184.285156 93.023438 187.558594 93.023438 191.101562 C 93.023438 196.710938 88.625 201.300781 83.09375 201.640625 C 82.703125 200.226562 81.40625 199.183594 79.867188 199.183594 C 78.023438 199.183594 76.523438 200.683594 76.523438 202.527344 C 76.523438 204.371094 78.023438 205.871094 79.867188 205.871094 C 81.429688 205.871094 82.742188 204.796875 83.109375 203.351562 C 84.671875 203.265625 86.15625 202.894531 87.507812 202.277344 C 87.527344 202.535156 87.546875 202.789062 87.546875 203.042969 C 87.546875 207.328125 84.636719 211.042969 80.605469 212.171875 C 80.710938 211.554688 80.777344 210.925781 80.777344 210.28125 C 80.777344 209.347656 80.660156 208.417969 80.429688 207.515625 L 78.769531 207.9375 C 78.964844 208.699219 79.0625 209.488281 79.0625 210.28125 C 79.0625 215.511719 74.804688 219.765625 69.570312 219.765625 C 64.335938 219.765625 60.074219 215.511719 60.074219 210.277344 L 60.074219 208.007812 C 60.328125 205.394531 61.679688 203.011719 63.785156 201.453125 C 64.386719 202.328125 65.398438 202.902344 66.542969 202.902344 C 68.386719 202.902344 69.886719 201.402344 69.886719 199.558594 C 69.886719 197.714844 68.386719 196.214844 66.542969 196.214844 C 66.125 196.214844 65.726562 196.292969 65.363281 196.433594 C 64.105469 194.175781 62.25 192.382812 60.050781 191.214844 L 60.039062 181.8125 L 63.214844 180.03125 C 64.6875 181.039062 66.414062 181.699219 68.273438 181.902344 C 68.628906 183.371094 69.949219 184.464844 71.527344 184.464844 C 73.371094 184.464844 74.875 182.964844 74.875 181.121094 C 74.875 179.277344 73.371094 177.777344 71.527344 177.777344 C 70.007812 177.777344 68.722656 178.792969 68.3125 180.183594 C 67.097656 180.027344 65.949219 179.644531 64.921875 179.074219 L 76.667969 172.492188 C 76.605469 172.742188 76.570312 173.003906 76.570312 173.269531 C 76.570312 175.117188 78.074219 176.617188 79.921875 176.617188 C 81.765625 176.617188 83.265625 175.117188 83.265625 173.269531 C 83.265625 171.785156 82.292969 170.527344 80.953125 170.089844 L 82.074219 169.464844 C 85.296875 171 87.496094 174.296875 87.496094 178.019531 C 87.496094 179.628906 87.089844 181.183594 86.328125 182.574219 Z M 53.648438 135.222656 L 97.339844 158.949219 L 81.964844 167.5625 C 81.355469 167.328125 80.722656 167.152344 80.0625 167.027344 C 78.515625 162.699219 74.378906 159.585938 69.519531 159.585938 C 67.84375 159.585938 66.261719 159.964844 64.832031 160.625 C 62.449219 156.753906 58.238281 154.378906 53.648438 154.378906 C 48.757812 154.378906 44.335938 157.074219 42.070312 161.324219 C 40.746094 160.773438 39.300781 160.46875 37.78125 160.46875 C 32.921875 160.46875 28.785156 163.578125 27.238281 167.910156 C 26.929688 167.964844 26.625 168.035156 26.324219 168.117188 L 9.960938 158.949219 Z M 101.449219 158.042969 C 100.78125 157.652344 99.972656 157.636719 99.136719 157.976562 L 53.648438 133.277344 L 8.164062 157.976562 C 7.777344 157.816406 7.394531 157.734375 7.019531 157.734375 C 5.796875 157.734375 4.566406 158.65625 4.566406 160.714844 L 4.566406 212.015625 C 4.566406 214.167969 5.972656 216.636719 7.769531 217.644531 L 50.460938 241.566406 C 50.996094 241.871094 51.53125 242.023438 52.046875 242.023438 C 52.625 242.023438 53.199219 241.808594 53.648438 241.378906 C 53.777344 241.503906 53.917969 241.621094 54.074219 241.710938 C 54.433594 241.921875 54.828125 242.027344 55.246094 242.027344 C 55.753906 242.027344 56.292969 241.871094 56.839844 241.570312 L 99.527344 217.644531 C 101.324219 216.636719 102.734375 214.167969 102.734375 212.015625 L 102.734375 160.714844 C 102.734375 159.492188 102.265625 158.519531 101.449219 158.042969 " fill-opacity="1" fill-rule="nonzero"/></g><g fill="#d32f23" fill-opacity="0.4196"><g transform="translate(109.856764, 216.080407)"><g><path d="M 14.15625 0.53125 C 10.257812 0.53125 7.179688 -0.539062 4.921875 -2.6875 C 2.671875 -4.832031 1.546875 -7.757812 1.546875 -11.46875 C 1.546875 -11.914062 1.585938 -12.675781 1.671875 -13.75 L 4.09375 -33.34375 C 4.625 -37.6875 6.34375 -41.128906 9.25 -43.671875 C 12.164062 -46.222656 15.769531 -47.5 20.0625 -47.5 C 23.945312 -47.5 27.03125 -46.4375 29.3125 -44.3125 C 31.59375 -42.1875 32.734375 -39.269531 32.734375 -35.5625 C 32.734375 -35.15625 32.691406 -34.414062 32.609375 -33.34375 L 32.546875 -33.015625 C 32.492188 -32.703125 32.367188 -32.441406 32.171875 -32.234375 C 31.972656 -32.035156 31.738281 -31.9375 31.46875 -31.9375 L 21.140625 -31.59375 C 20.460938 -31.59375 20.171875 -31.910156 20.265625 -32.546875 L 20.46875 -34.21875 C 20.550781 -34.976562 20.4375 -35.582031 20.125 -36.03125 C 19.8125 -36.476562 19.363281 -36.703125 18.78125 -36.703125 C 18.15625 -36.703125 17.628906 -36.476562 17.203125 -36.03125 C 16.785156 -35.582031 16.53125 -34.976562 16.4375 -34.21875 L 13.828125 -12.6875 C 13.734375 -11.96875 13.832031 -11.382812 14.125 -10.9375 C 14.414062 -10.488281 14.875 -10.265625 15.5 -10.265625 C 16.125 -10.265625 16.648438 -10.476562 17.078125 -10.90625 C 17.503906 -11.332031 17.757812 -11.925781 17.84375 -12.6875 L 18.046875 -14.5 C 18.085938 -14.8125 18.207031 -15.046875 18.40625 -15.203125 C 18.613281 -15.359375 18.851562 -15.4375 19.125 -15.4375 L 29.390625 -15.09375 C 29.703125 -15.09375 29.9375 -14.992188 30.09375 -14.796875 C 30.25 -14.597656 30.304688 -14.335938 30.265625 -14.015625 L 30.1875 -13.75 C 29.65625 -9.414062 27.921875 -5.953125 24.984375 -3.359375 C 22.054688 -0.765625 18.445312 0.53125 14.15625 0.53125 Z M 14.15625 0.53125 "/></g></g></g><g fill="#d32f23" fill-opacity="0.4196"><g transform="translate(140.854873, 216.080407)"><g><path d="M 14.296875 0.53125 C 10.441406 0.53125 7.394531 -0.5625 5.15625 -2.75 C 2.925781 -4.9375 1.8125 -7.890625 1.8125 -11.609375 C 1.8125 -12.097656 1.859375 -12.878906 1.953125 -13.953125 L 5.90625 -45.953125 C 5.945312 -46.265625 6.066406 -46.507812 6.265625 -46.6875 C 6.472656 -46.875 6.710938 -46.96875 6.984375 -46.96875 L 17.3125 -46.96875 C 17.582031 -46.96875 17.796875 -46.875 17.953125 -46.6875 C 18.109375 -46.507812 18.160156 -46.265625 18.109375 -45.953125 L 14.09375 -12.75 C 14 -11.988281 14.085938 -11.382812 14.359375 -10.9375 C 14.628906 -10.488281 15.054688 -10.265625 15.640625 -10.265625 C 16.210938 -10.265625 16.6875 -10.488281 17.0625 -10.9375 C 17.445312 -11.382812 17.6875 -11.988281 17.78125 -12.75 L 21.875 -45.953125 C 21.914062 -46.265625 22.023438 -46.507812 22.203125 -46.6875 C 22.378906 -46.875 22.628906 -46.96875 22.953125 -46.96875 L 33.21875 -46.96875 C 33.53125 -46.96875 33.765625 -46.875 33.921875 -46.6875 C 34.078125 -46.507812 34.128906 -46.265625 34.078125 -45.953125 L 30.125 -13.953125 C 29.769531 -11.085938 28.875 -8.5625 27.4375 -6.375 C 26.007812 -4.1875 24.15625 -2.488281 21.875 -1.28125 C 19.59375 -0.0703125 17.066406 0.53125 14.296875 0.53125 Z M 14.296875 0.53125 "/></g></g></g><g fill="#d32f23" fill-opacity="0.4196"><g transform="translate(172.188459, 216.080407)"><g><path d="M 30.796875 -13.484375 C 30.304688 -9.148438 28.59375 -5.816406 25.65625 -3.484375 C 22.726562 -1.160156 19.207031 0 15.09375 0 L 1.34375 0 C 1.070312 0 0.859375 -0.0859375 0.703125 -0.265625 C 0.546875 -0.441406 0.488281 -0.6875 0.53125 -1 L 6.03125 -45.953125 C 6.082031 -46.265625 6.207031 -46.507812 6.40625 -46.6875 C 6.601562 -46.875 6.835938 -46.96875 7.109375 -46.96875 L 18.921875 -46.96875 C 23.210938 -46.96875 26.554688 -46.0625 28.953125 -44.25 C 31.347656 -42.4375 32.546875 -39.695312 32.546875 -36.03125 C 32.546875 -35.582031 32.5 -34.820312 32.40625 -33.75 C 31.863281 -29.59375 30.234375 -26.503906 27.515625 -24.484375 C 27.242188 -24.347656 27.175781 -24.21875 27.3125 -24.09375 C 29.726562 -22.03125 30.9375 -19.144531 30.9375 -15.4375 C 30.9375 -15.03125 30.890625 -14.378906 30.796875 -13.484375 Z M 17.375 -36.15625 C 17.15625 -36.15625 17.046875 -36.046875 17.046875 -35.828125 L 16.171875 -28.984375 C 16.171875 -28.765625 16.257812 -28.65625 16.4375 -28.65625 L 16.84375 -28.65625 C 18.757812 -28.65625 19.898438 -29.90625 20.265625 -32.40625 L 20.328125 -33.28125 C 20.328125 -35.195312 19.476562 -36.15625 17.78125 -36.15625 Z M 15.4375 -10.796875 C 16.414062 -10.796875 17.226562 -11.265625 17.875 -12.203125 C 18.53125 -13.148438 18.859375 -14.492188 18.859375 -16.234375 C 18.859375 -17.265625 18.65625 -18.09375 18.25 -18.71875 C 17.84375 -19.34375 17.285156 -19.65625 16.578125 -19.65625 L 15.359375 -19.65625 C 15.140625 -19.65625 15.03125 -19.546875 15.03125 -19.328125 L 14.015625 -11.140625 C 13.929688 -10.910156 14.023438 -10.796875 14.296875 -10.796875 Z M 15.4375 -10.796875 "/></g></g></g><g fill="#d32f23" fill-opacity="0.4196"><g transform="translate(203.656239, 216.080407)"><g><path d="M 31 -37.171875 C 30.957031 -36.859375 30.832031 -36.609375 30.625 -36.421875 C 30.425781 -36.242188 30.171875 -36.15625 29.859375 -36.15625 L 17.375 -36.15625 C 17.15625 -36.15625 17.046875 -36.046875 17.046875 -35.828125 L 16.234375 -29.25 C 16.148438 -29.03125 16.238281 -28.921875 16.5 -28.921875 L 23.015625 -28.921875 C 23.328125 -28.921875 23.5625 -28.828125 23.71875 -28.640625 C 23.875 -28.460938 23.929688 -28.21875 23.890625 -27.90625 L 22.8125 -19.125 C 22.675781 -18.445312 22.296875 -18.109375 21.671875 -18.109375 L 15.15625 -18.109375 C 14.9375 -18.109375 14.828125 -18 14.828125 -17.78125 L 14.015625 -11.140625 C 13.929688 -10.910156 14.023438 -10.796875 14.296875 -10.796875 L 26.765625 -10.796875 C 27.078125 -10.796875 27.3125 -10.707031 27.46875 -10.53125 C 27.625 -10.351562 27.679688 -10.109375 27.640625 -9.796875 L 26.5625 -1 C 26.519531 -0.6875 26.394531 -0.441406 26.1875 -0.265625 C 25.988281 -0.0859375 25.734375 0 25.421875 0 L 1.34375 0 C 1.070312 0 0.859375 -0.0859375 0.703125 -0.265625 C 0.546875 -0.441406 0.488281 -0.6875 0.53125 -1 L 6.03125 -45.953125 C 6.082031 -46.265625 6.207031 -46.507812 6.40625 -46.6875 C 6.601562 -46.875 6.835938 -46.96875 7.109375 -46.96875 L 31.203125 -46.96875 C 31.515625 -46.96875 31.75 -46.875 31.90625 -46.6875 C 32.0625 -46.507812 32.117188 -46.265625 32.078125 -45.953125 Z M 31 -37.171875 "/></g></g></g><g fill="#d32f23" fill-opacity="0.4196"><g transform="translate(232.574389, 216.080407)"><g><path d="M 21.671875 -46.96875 C 25.242188 -46.96875 28.070312 -45.816406 30.15625 -43.515625 C 32.238281 -41.210938 33.28125 -38.160156 33.28125 -34.359375 C 33.28125 -33.273438 33.234375 -32.445312 33.140625 -31.875 C 32.785156 -29.007812 31.945312 -26.476562 30.625 -24.28125 C 29.3125 -22.09375 27.613281 -20.40625 25.53125 -19.21875 C 23.445312 -18.03125 21.15625 -17.4375 18.65625 -17.4375 L 14.96875 -17.4375 C 14.738281 -17.4375 14.625 -17.328125 14.625 -17.109375 L 12.609375 -1 C 12.566406 -0.6875 12.441406 -0.441406 12.234375 -0.265625 C 12.035156 -0.0859375 11.804688 0 11.546875 0 L 1.203125 0 C 0.941406 0 0.726562 -0.0859375 0.5625 -0.265625 C 0.40625 -0.441406 0.351562 -0.6875 0.40625 -1 L 5.90625 -45.953125 C 5.945312 -46.265625 6.066406 -46.507812 6.265625 -46.6875 C 6.472656 -46.875 6.710938 -46.96875 6.984375 -46.96875 Z M 17.046875 -27.171875 C 18.023438 -27.171875 18.859375 -27.539062 19.546875 -28.28125 C 20.242188 -29.019531 20.679688 -30.125 20.859375 -31.59375 C 20.910156 -31.863281 20.9375 -32.242188 20.9375 -32.734375 C 20.9375 -33.859375 20.6875 -34.707031 20.1875 -35.28125 C 19.695312 -35.863281 19.03125 -36.15625 18.1875 -36.15625 L 17.25 -36.15625 C 17.019531 -36.15625 16.90625 -36.046875 16.90625 -35.828125 L 15.90625 -27.515625 C 15.8125 -27.285156 15.898438 -27.171875 16.171875 -27.171875 Z M 17.046875 -27.171875 "/></g></g></g><g fill="#d32f23" fill-opacity="0.4196"><g transform="translate(263.907976, 216.080407)"><g><path d="M 1.34375 0 C 1.070312 0 0.859375 -0.0859375 0.703125 -0.265625 C 0.546875 -0.441406 0.488281 -0.6875 0.53125 -1 L 6.03125 -45.953125 C 6.082031 -46.265625 6.207031 -46.507812 6.40625 -46.6875 C 6.601562 -46.875 6.835938 -46.96875 7.109375 -46.96875 L 17.4375 -46.96875 C 17.707031 -46.96875 17.921875 -46.875 18.078125 -46.6875 C 18.234375 -46.507812 18.289062 -46.265625 18.25 -45.953125 L 14.015625 -11.140625 C 13.929688 -10.910156 14.023438 -10.796875 14.296875 -10.796875 L 27.03125 -10.796875 C 27.351562 -10.796875 27.59375 -10.707031 27.75 -10.53125 C 27.90625 -10.351562 27.957031 -10.109375 27.90625 -9.796875 L 26.84375 -1 C 26.707031 -0.332031 26.328125 0 25.703125 0 Z M 1.34375 0 "/></g></g></g><g fill="#d32f23" fill-opacity="0.4196"><g transform="translate(292.960319, 216.080407)"><g><path d="M 31 -37.171875 C 30.957031 -36.859375 30.832031 -36.609375 30.625 -36.421875 C 30.425781 -36.242188 30.171875 -36.15625 29.859375 -36.15625 L 17.375 -36.15625 C 17.15625 -36.15625 17.046875 -36.046875 17.046875 -35.828125 L 16.234375 -29.25 C 16.148438 -29.03125 16.238281 -28.921875 16.5 -28.921875 L 23.015625 -28.921875 C 23.328125 -28.921875 23.5625 -28.828125 23.71875 -28.640625 C 23.875 -28.460938 23.929688 -28.21875 23.890625 -27.90625 L 22.8125 -19.125 C 22.675781 -18.445312 22.296875 -18.109375 21.671875 -18.109375 L 15.15625 -18.109375 C 14.9375 -18.109375 14.828125 -18 14.828125 -17.78125 L 14.015625 -11.140625 C 13.929688 -10.910156 14.023438 -10.796875 14.296875 -10.796875 L 26.765625 -10.796875 C 27.078125 -10.796875 27.3125 -10.707031 27.46875 -10.53125 C 27.625 -10.351562 27.679688 -10.109375 27.640625 -9.796875 L 26.5625 -1 C 26.519531 -0.6875 26.394531 -0.441406 26.1875 -0.265625 C 25.988281 -0.0859375 25.734375 0 25.421875 0 L 1.34375 0 C 1.070312 0 0.859375 -0.0859375 0.703125 -0.265625 C 0.546875 -0.441406 0.488281 -0.6875 0.53125 -1 L 6.03125 -45.953125 C 6.082031 -46.265625 6.207031 -46.507812 6.40625 -46.6875 C 6.601562 -46.875 6.835938 -46.96875 7.109375 -46.96875 L 31.203125 -46.96875 C 31.515625 -46.96875 31.75 -46.875 31.90625 -46.6875 C 32.0625 -46.507812 32.117188 -46.265625 32.078125 -45.953125 Z M 31 -37.171875 "/></g></g></g><g fill="#d32f23" fill-opacity="0.4196"><g transform="translate(321.878469, 216.080407)"><g><path d="M 0.734375 0 C 0.203125 0 -0.0625 -0.203125 -0.0625 -0.609375 L 0.0625 -1.140625 L 11.40625 -23.28125 C 11.445312 -23.414062 11.445312 -23.550781 11.40625 -23.6875 L 5.5625 -45.828125 C 5.519531 -45.910156 5.5 -46.019531 5.5 -46.15625 C 5.5 -46.695312 5.835938 -46.96875 6.515625 -46.96875 L 16.90625 -46.96875 C 17.175781 -46.96875 17.398438 -46.890625 17.578125 -46.734375 C 17.753906 -46.578125 17.863281 -46.363281 17.90625 -46.09375 L 19.390625 -36.765625 C 19.429688 -36.628906 19.492188 -36.5625 19.578125 -36.5625 C 19.671875 -36.5625 19.742188 -36.628906 19.796875 -36.765625 L 23.609375 -46.09375 C 23.835938 -46.675781 24.242188 -46.96875 24.828125 -46.96875 L 35.15625 -46.96875 C 35.695312 -46.96875 35.96875 -46.765625 35.96875 -46.359375 L 35.828125 -45.828125 L 24.484375 -23.6875 C 24.441406 -23.550781 24.441406 -23.414062 24.484375 -23.28125 L 30.328125 -1.140625 C 30.367188 -1.046875 30.390625 -0.9375 30.390625 -0.8125 C 30.390625 -0.269531 30.054688 0 29.390625 0 L 19.125 0 C 18.851562 0 18.628906 -0.078125 18.453125 -0.234375 C 18.273438 -0.390625 18.160156 -0.601562 18.109375 -0.875 L 16.5 -10.125 C 16.5 -10.3125 16.453125 -10.40625 16.359375 -10.40625 C 16.273438 -10.40625 16.210938 -10.3125 16.171875 -10.125 L 12.28125 -0.875 C 12.050781 -0.289062 11.648438 0 11.078125 0 Z M 0.734375 0 "/></g></g></g><g fill="#75c7fb" fill-opacity="1"><g transform="translate(107.861956, 214.284276)"><g><path d="M 14.15625 0.53125 C 10.257812 0.53125 7.179688 -0.539062 4.921875 -2.6875 C 2.671875 -4.832031 1.546875 -7.757812 1.546875 -11.46875 C 1.546875 -11.914062 1.585938 -12.675781 1.671875 -13.75 L 4.09375 -33.34375 C 4.625 -37.6875 6.34375 -41.128906 9.25 -43.671875 C 12.164062 -46.222656 15.769531 -47.5 20.0625 -47.5 C 23.945312 -47.5 27.03125 -46.4375 29.3125 -44.3125 C 31.59375 -42.1875 32.734375 -39.269531 32.734375 -35.5625 C 32.734375 -35.15625 32.691406 -34.414062 32.609375 -33.34375 L 32.546875 -33.015625 C 32.492188 -32.703125 32.367188 -32.441406 32.171875 -32.234375 C 31.972656 -32.035156 31.738281 -31.9375 31.46875 -31.9375 L 21.140625 -31.59375 C 20.460938 -31.59375 20.171875 -31.910156 20.265625 -32.546875 L 20.46875 -34.21875 C 20.550781 -34.976562 20.4375 -35.582031 20.125 -36.03125 C 19.8125 -36.476562 19.363281 -36.703125 18.78125 -36.703125 C 18.15625 -36.703125 17.628906 -36.476562 17.203125 -36.03125 C 16.785156 -35.582031 16.53125 -34.976562 16.4375 -34.21875 L 13.828125 -12.6875 C 13.734375 -11.96875 13.832031 -11.382812 14.125 -10.9375 C 14.414062 -10.488281 14.875 -10.265625 15.5 -10.265625 C 16.125 -10.265625 16.648438 -10.476562 17.078125 -10.90625 C 17.503906 -11.332031 17.757812 -11.925781 17.84375 -12.6875 L 18.046875 -14.5 C 18.085938 -14.8125 18.207031 -15.046875 18.40625 -15.203125 C 18.613281 -15.359375 18.851562 -15.4375 19.125 -15.4375 L 29.390625 -15.09375 C 29.703125 -15.09375 29.9375 -14.992188 30.09375 -14.796875 C 30.25 -14.597656 30.304688 -14.335938 30.265625 -14.015625 L 30.1875 -13.75 C 29.65625 -9.414062 27.921875 -5.953125 24.984375 -3.359375 C 22.054688 -0.765625 18.445312 0.53125 14.15625 0.53125 Z M 14.15625 0.53125 "/></g></g></g><g fill="#75c7fb" fill-opacity="1"><g transform="translate(138.860065, 214.284276)"><g><path d="M 14.296875 0.53125 C 10.441406 0.53125 7.394531 -0.5625 5.15625 -2.75 C 2.925781 -4.9375 1.8125 -7.890625 1.8125 -11.609375 C 1.8125 -12.097656 1.859375 -12.878906 1.953125 -13.953125 L 5.90625 -45.953125 C 5.945312 -46.265625 6.066406 -46.507812 6.265625 -46.6875 C 6.472656 -46.875 6.710938 -46.96875 6.984375 -46.96875 L 17.3125 -46.96875 C 17.582031 -46.96875 17.796875 -46.875 17.953125 -46.6875 C 18.109375 -46.507812 18.160156 -46.265625 18.109375 -45.953125 L 14.09375 -12.75 C 14 -11.988281 14.085938 -11.382812 14.359375 -10.9375 C 14.628906 -10.488281 15.054688 -10.265625 15.640625 -10.265625 C 16.210938 -10.265625 16.6875 -10.488281 17.0625 -10.9375 C 17.445312 -11.382812 17.6875 -11.988281 17.78125 -12.75 L 21.875 -45.953125 C 21.914062 -46.265625 22.023438 -46.507812 22.203125 -46.6875 C 22.378906 -46.875 22.628906 -46.96875 22.953125 -46.96875 L 33.21875 -46.96875 C 33.53125 -46.96875 33.765625 -46.875 33.921875 -46.6875 C 34.078125 -46.507812 34.128906 -46.265625 34.078125 -45.953125 L 30.125 -13.953125 C 29.769531 -11.085938 28.875 -8.5625 27.4375 -6.375 C 26.007812 -4.1875 24.15625 -2.488281 21.875 -1.28125 C 19.59375 -0.0703125 17.066406 0.53125 14.296875 0.53125 Z M 14.296875 0.53125 "/></g></g></g><g fill="#75c7fb" fill-opacity="1"><g transform="translate(170.193651, 214.284276)"><g><path d="M 30.796875 -13.484375 C 30.304688 -9.148438 28.59375 -5.816406 25.65625 -3.484375 C 22.726562 -1.160156 19.207031 0 15.09375 0 L 1.34375 0 C 1.070312 0 0.859375 -0.0859375 0.703125 -0.265625 C 0.546875 -0.441406 0.488281 -0.6875 0.53125 -1 L 6.03125 -45.953125 C 6.082031 -46.265625 6.207031 -46.507812 6.40625 -46.6875 C 6.601562 -46.875 6.835938 -46.96875 7.109375 -46.96875 L 18.921875 -46.96875 C 23.210938 -46.96875 26.554688 -46.0625 28.953125 -44.25 C 31.347656 -42.4375 32.546875 -39.695312 32.546875 -36.03125 C 32.546875 -35.582031 32.5 -34.820312 32.40625 -33.75 C 31.863281 -29.59375 30.234375 -26.503906 27.515625 -24.484375 C 27.242188 -24.347656 27.175781 -24.21875 27.3125 -24.09375 C 29.726562 -22.03125 30.9375 -19.144531 30.9375 -15.4375 C 30.9375 -15.03125 30.890625 -14.378906 30.796875 -13.484375 Z M 17.375 -36.15625 C 17.15625 -36.15625 17.046875 -36.046875 17.046875 -35.828125 L 16.171875 -28.984375 C 16.171875 -28.765625 16.257812 -28.65625 16.4375 -28.65625 L 16.84375 -28.65625 C 18.757812 -28.65625 19.898438 -29.90625 20.265625 -32.40625 L 20.328125 -33.28125 C 20.328125 -35.195312 19.476562 -36.15625 17.78125 -36.15625 Z M 15.4375 -10.796875 C 16.414062 -10.796875 17.226562 -11.265625 17.875 -12.203125 C 18.53125 -13.148438 18.859375 -14.492188 18.859375 -16.234375 C 18.859375 -17.265625 18.65625 -18.09375 18.25 -18.71875 C 17.84375 -19.34375 17.285156 -19.65625 16.578125 -19.65625 L 15.359375 -19.65625 C 15.140625 -19.65625 15.03125 -19.546875 15.03125 -19.328125 L 14.015625 -11.140625 C 13.929688 -10.910156 14.023438 -10.796875 14.296875 -10.796875 Z M 15.4375 -10.796875 "/></g></g></g><g fill="#75c7fb" fill-opacity="1"><g transform="translate(201.661432, 214.284276)"><g><path d="M 31 -37.171875 C 30.957031 -36.859375 30.832031 -36.609375 30.625 -36.421875 C 30.425781 -36.242188 30.171875 -36.15625 29.859375 -36.15625 L 17.375 -36.15625 C 17.15625 -36.15625 17.046875 -36.046875 17.046875 -35.828125 L 16.234375 -29.25 C 16.148438 -29.03125 16.238281 -28.921875 16.5 -28.921875 L 23.015625 -28.921875 C 23.328125 -28.921875 23.5625 -28.828125 23.71875 -28.640625 C 23.875 -28.460938 23.929688 -28.21875 23.890625 -27.90625 L 22.8125 -19.125 C 22.675781 -18.445312 22.296875 -18.109375 21.671875 -18.109375 L 15.15625 -18.109375 C 14.9375 -18.109375 14.828125 -18 14.828125 -17.78125 L 14.015625 -11.140625 C 13.929688 -10.910156 14.023438 -10.796875 14.296875 -10.796875 L 26.765625 -10.796875 C 27.078125 -10.796875 27.3125 -10.707031 27.46875 -10.53125 C 27.625 -10.351562 27.679688 -10.109375 27.640625 -9.796875 L 26.5625 -1 C 26.519531 -0.6875 26.394531 -0.441406 26.1875 -0.265625 C 25.988281 -0.0859375 25.734375 0 25.421875 0 L 1.34375 0 C 1.070312 0 0.859375 -0.0859375 0.703125 -0.265625 C 0.546875 -0.441406 0.488281 -0.6875 0.53125 -1 L 6.03125 -45.953125 C 6.082031 -46.265625 6.207031 -46.507812 6.40625 -46.6875 C 6.601562 -46.875 6.835938 -46.96875 7.109375 -46.96875 L 31.203125 -46.96875 C 31.515625 -46.96875 31.75 -46.875 31.90625 -46.6875 C 32.0625 -46.507812 32.117188 -46.265625 32.078125 -45.953125 Z M 31 -37.171875 "/></g></g></g><g fill="#75c7fb" fill-opacity="1"><g transform="translate(230.579581, 214.284276)"><g><path d="M 21.671875 -46.96875 C 25.242188 -46.96875 28.070312 -45.816406 30.15625 -43.515625 C 32.238281 -41.210938 33.28125 -38.160156 33.28125 -34.359375 C 33.28125 -33.273438 33.234375 -32.445312 33.140625 -31.875 C 32.785156 -29.007812 31.945312 -26.476562 30.625 -24.28125 C 29.3125 -22.09375 27.613281 -20.40625 25.53125 -19.21875 C 23.445312 -18.03125 21.15625 -17.4375 18.65625 -17.4375 L 14.96875 -17.4375 C 14.738281 -17.4375 14.625 -17.328125 14.625 -17.109375 L 12.609375 -1 C 12.566406 -0.6875 12.441406 -0.441406 12.234375 -0.265625 C 12.035156 -0.0859375 11.804688 0 11.546875 0 L 1.203125 0 C 0.941406 0 0.726562 -0.0859375 0.5625 -0.265625 C 0.40625 -0.441406 0.351562 -0.6875 0.40625 -1 L 5.90625 -45.953125 C 5.945312 -46.265625 6.066406 -46.507812 6.265625 -46.6875 C 6.472656 -46.875 6.710938 -46.96875 6.984375 -46.96875 Z M 17.046875 -27.171875 C 18.023438 -27.171875 18.859375 -27.539062 19.546875 -28.28125 C 20.242188 -29.019531 20.679688 -30.125 20.859375 -31.59375 C 20.910156 -31.863281 20.9375 -32.242188 20.9375 -32.734375 C 20.9375 -33.859375 20.6875 -34.707031 20.1875 -35.28125 C 19.695312 -35.863281 19.03125 -36.15625 18.1875 -36.15625 L 17.25 -36.15625 C 17.019531 -36.15625 16.90625 -36.046875 16.90625 -35.828125 L 15.90625 -27.515625 C 15.8125 -27.285156 15.898438 -27.171875 16.171875 -27.171875 Z M 17.046875 -27.171875 "/></g></g></g><g fill="#75c7fb" fill-opacity="1"><g transform="translate(261.913168, 214.284276)"><g><path d="M 1.34375 0 C 1.070312 0 0.859375 -0.0859375 0.703125 -0.265625 C 0.546875 -0.441406 0.488281 -0.6875 0.53125 -1 L 6.03125 -45.953125 C 6.082031 -46.265625 6.207031 -46.507812 6.40625 -46.6875 C 6.601562 -46.875 6.835938 -46.96875 7.109375 -46.96875 L 17.4375 -46.96875 C 17.707031 -46.96875 17.921875 -46.875 18.078125 -46.6875 C 18.234375 -46.507812 18.289062 -46.265625 18.25 -45.953125 L 14.015625 -11.140625 C 13.929688 -10.910156 14.023438 -10.796875 14.296875 -10.796875 L 27.03125 -10.796875 C 27.351562 -10.796875 27.59375 -10.707031 27.75 -10.53125 C 27.90625 -10.351562 27.957031 -10.109375 27.90625 -9.796875 L 26.84375 -1 C 26.707031 -0.332031 26.328125 0 25.703125 0 Z M 1.34375 0 "/></g></g></g><g fill="#75c7fb" fill-opacity="1"><g transform="translate(290.965511, 214.284276)"><g><path d="M 31 -37.171875 C 30.957031 -36.859375 30.832031 -36.609375 30.625 -36.421875 C 30.425781 -36.242188 30.171875 -36.15625 29.859375 -36.15625 L 17.375 -36.15625 C 17.15625 -36.15625 17.046875 -36.046875 17.046875 -35.828125 L 16.234375 -29.25 C 16.148438 -29.03125 16.238281 -28.921875 16.5 -28.921875 L 23.015625 -28.921875 C 23.328125 -28.921875 23.5625 -28.828125 23.71875 -28.640625 C 23.875 -28.460938 23.929688 -28.21875 23.890625 -27.90625 L 22.8125 -19.125 C 22.675781 -18.445312 22.296875 -18.109375 21.671875 -18.109375 L 15.15625 -18.109375 C 14.9375 -18.109375 14.828125 -18 14.828125 -17.78125 L 14.015625 -11.140625 C 13.929688 -10.910156 14.023438 -10.796875 14.296875 -10.796875 L 26.765625 -10.796875 C 27.078125 -10.796875 27.3125 -10.707031 27.46875 -10.53125 C 27.625 -10.351562 27.679688 -10.109375 27.640625 -9.796875 L 26.5625 -1 C 26.519531 -0.6875 26.394531 -0.441406 26.1875 -0.265625 C 25.988281 -0.0859375 25.734375 0 25.421875 0 L 1.34375 0 C 1.070312 0 0.859375 -0.0859375 0.703125 -0.265625 C 0.546875 -0.441406 0.488281 -0.6875 0.53125 -1 L 6.03125 -45.953125 C 6.082031 -46.265625 6.207031 -46.507812 6.40625 -46.6875 C 6.601562 -46.875 6.835938 -46.96875 7.109375 -46.96875 L 31.203125 -46.96875 C 31.515625 -46.96875 31.75 -46.875 31.90625 -46.6875 C 32.0625 -46.507812 32.117188 -46.265625 32.078125 -45.953125 Z M 31 -37.171875 "/></g></g></g><g fill="#75c7fb" fill-opacity="1"><g transform="translate(319.883661, 214.284276)"><g><path d="M 0.734375 0 C 0.203125 0 -0.0625 -0.203125 -0.0625 -0.609375 L 0.0625 -1.140625 L 11.40625 -23.28125 C 11.445312 -23.414062 11.445312 -23.550781 11.40625 -23.6875 L 5.5625 -45.828125 C 5.519531 -45.910156 5.5 -46.019531 5.5 -46.15625 C 5.5 -46.695312 5.835938 -46.96875 6.515625 -46.96875 L 16.90625 -46.96875 C 17.175781 -46.96875 17.398438 -46.890625 17.578125 -46.734375 C 17.753906 -46.578125 17.863281 -46.363281 17.90625 -46.09375 L 19.390625 -36.765625 C 19.429688 -36.628906 19.492188 -36.5625 19.578125 -36.5625 C 19.671875 -36.5625 19.742188 -36.628906 19.796875 -36.765625 L 23.609375 -46.09375 C 23.835938 -46.675781 24.242188 -46.96875 24.828125 -46.96875 L 35.15625 -46.96875 C 35.695312 -46.96875 35.96875 -46.765625 35.96875 -46.359375 L 35.828125 -45.828125 L 24.484375 -23.6875 C 24.441406 -23.550781 24.441406 -23.414062 24.484375 -23.28125 L 30.328125 -1.140625 C 30.367188 -1.046875 30.390625 -0.9375 30.390625 -0.8125 C 30.390625 -0.269531 30.054688 0 29.390625 0 L 19.125 0 C 18.851562 0 18.628906 -0.078125 18.453125 -0.234375 C 18.273438 -0.390625 18.160156 -0.601562 18.109375 -0.875 L 16.5 -10.125 C 16.5 -10.3125 16.453125 -10.40625 16.359375 -10.40625 C 16.273438 -10.40625 16.210938 -10.3125 16.171875 -10.125 L 12.28125 -0.875 C 12.050781 -0.289062 11.648438 0 11.078125 0 Z M 0.734375 0 "/></g></g></g></svg>